# xmcd
#
# Track frame offsets: 
#        150
#        9830
#        21746
#        34244
#        45112
#        66387
#        79069
#        94599
#        105805
#        120595
#        133275
#        147225
#        157025
#        172119
#        183157
#        198348
#        213467
#        233680
#        246522
#        260409
#
# Disc length: 3695 seconds
#
# Revision: 0
# Processed by: cddbd v1.5.2PL0 Copyright (c) Steve Scherf et al.
# Submitted via: ExactAudioCopy v0.95b3
#
DISCID=130e6d14
DTITLE=Jim Lauderdale - I'm A Song
DYEAR=2014
DGENRE=Bluegrass
TTITLE0=Let's Have A Good Thing Together
TTITLE1=Past It
TTITLE2=You've Got A Way All Yours
TTITLE3=I'm A Song
TTITLE4=The Feeling's Hanging On
TTITLE5=I've Lost You (with Buddy Miller)
TTITLE6=Doin' Time In Bakersfield (with Lee Ann Womack)
TTITLE7=A Day With No Tomorrow (with Lee Ann Womack)
TTITLE8=End Of The World Rag
TTITLE9=Neon Hearts
TTITLE10=I Wish You Loved Me
TTITLE11=Makin' Honey
TTITLE12=Let Him Come To You
TTITLE13=Today I've Got The Yesterdays (with Patty Loveless)
TTITLE14=There's No Shadows In The Shade
TTITLE15=Hope And Find
TTITLE16=The Day The Devil Changed
TTITLE17=The King Of Broken Hearts
TTITLE18=The World Is Waiting
TTITLE19=We Will Rock Again
EXTD=
EXTT0=
EXTT1=
EXTT2=
EXTT3=
EXTT4=
EXTT5=
EXTT6=
EXTT7=
EXTT8=
EXTT9=
EXTT10=
EXTT11=
EXTT12=
EXTT13=
EXTT14=
EXTT15=
EXTT16=
EXTT17=
EXTT18=
EXTT19=
PLAYORDER=
